<svg width="103" height="23" viewBox="0 0 103 23" fill="none" xmlns="http://www.w3.org/2000/svg">
<path d="M0.5 3.0001H12.5C12.9 3.0001 13.4 2.8001 13.7 2.5001L15.6 0.600098H3.5C2.2 0.600098 0.8 1.8001 0.5 3.0001Z" fill="#180048"/>
<path d="M2.19995 7.2999H8.19995C8.59995 7.2999 9.09995 7.0999 9.39995 6.7999L11.3 4.8999H5.19995C3.89995 4.8999 2.49995 6.0999 2.19995 7.2999Z" fill="#180048"/>
<path d="M11.5 16L6 21.5C5.4 22.1 4.6 22.5 3.7 22.5C1.9 22.5 0.5 21.1 0.5 19.3C0.5 17.5 1.9 16.1 3.7 16.1H11.5" fill="#180048"/>
<path d="M19.1 0.600098C18.2 0.600098 17.3 1.0001 16.7 1.6001L2.69995 15.6001C2.99995 15.5001 3.29995 15.5001 3.69995 15.5001H12L21.4 6.0001C22 5.4001 22.2999 4.6001 22.2999 3.7001C22.4 2.0001 20.9 0.600098 19.1 0.600098Z" fill="#180048"/>
<path d="M11.8 16.4L6.39998 21.8C6.39998 21.8 5.89998 22.4 5.59998 22.4H22.4C22.1 18.8 19 16 15.3 16H13H12.1L11.8 16.4Z" fill="#180048"/>
<path d="M51.3999 8.6002C51.3999 11.1002 49.4999 13.0002 46.8999 13.0002C44.2999 13.0002 42.3999 11.1002 42.3999 8.6002C42.3999 6.1002 44.2999 4.2002 46.8999 4.2002C49.3999 4.2002 51.3999 6.1002 51.3999 8.6002ZM44.5999 8.6002C44.5999 10.0002 45.4999 10.9002 46.7999 10.9002C48.0999 10.9002 48.9999 10.0002 48.9999 8.6002C48.9999 7.2002 47.9999 6.3002 46.7999 6.3002C45.5999 6.3002 44.5999 7.3002 44.5999 8.6002Z" fill="#180048"/>
<path d="M61.2999 8.6002C61.2999 11.1002 59.3999 13.0002 56.7999 13.0002C54.1999 13.0002 52.2999 11.1002 52.2999 8.6002C52.2999 6.1002 54.1999 4.2002 56.7999 4.2002C59.3999 4.2002 61.2999 6.1002 61.2999 8.6002ZM54.5999 8.6002C54.5999 10.0002 55.4999 10.9002 56.7999 10.9002C58.0999 10.9002 58.9999 10.0002 58.9999 8.6002C58.9999 7.2002 57.9999 6.3002 56.7999 6.3002C55.4999 6.3002 54.5999 7.3002 54.5999 8.6002Z" fill="#180048"/>
<path d="M76.3 7.49996V12.8H74.9C74.4 12.8 74 12.4 74 11.9V8.19996C74 6.99996 73.4 6.29996 72.4 6.29996C71.4 6.29996 70.6 6.89996 70.6 8.19996V12.8H69.2C68.7 12.8 68.3 12.4 68.3 11.9V8.19996C68.3 6.99996 67.7 6.29996 66.7 6.29996C65.7 6.29996 64.9 6.89996 64.9 8.19996V12.8H63.5C63 12.8 62.6 12.4 62.6 11.9V4.49996H63.9C64.4 4.49996 64.8 4.89996 64.8 5.39996V5.49996C65.4 4.59996 66.3 4.29996 67.3 4.29996C68.5 4.29996 69.5 4.79996 70.1 5.69996C70.7 4.59996 71.8 4.29996 72.9 4.29996C75 4.19996 76.3 5.59996 76.3 7.49996Z" fill="#180048"/>
<path d="M85.5 5.80014L83.9 7.20014C83.4 6.70014 82.8 6.40014 82.1 6.40014C80.9 6.40014 80 7.30014 80 8.70014C80 10.1001 80.9 11.0001 82.1 11.0001C82.8 11.0001 83.4 10.7001 83.9 10.2001L85.5 11.6001C84.7 12.6001 83.5 13.2001 82.1 13.2001C79.4 13.2001 77.6 11.3001 77.6 8.80014C77.6 6.30014 79.4 4.40014 82.1 4.40014C83.5 4.20014 84.7 4.80014 85.5 5.80014Z" fill="#180048"/>
<path d="M94.7 12.8002H93.4C92.9 12.8002 92.5 12.4002 92.5 11.9002C92 12.6002 91.2 13.0002 90 13.0002C87.7 13.0002 86 11.1002 86 8.6002C86 6.1002 87.7 4.2002 90 4.2002C91.1 4.2002 92 4.7002 92.5 5.3002V4.5002H94.7V12.8002ZM88.3 8.6002C88.3 9.9002 89.1 10.9002 90.5 10.9002C91.8 10.9002 92.7 9.9002 92.7 8.6002C92.7 7.3002 91.8 6.3002 90.5 6.3002C89.1 6.3002 88.3 7.4002 88.3 8.6002Z" fill="#180048"/>
<path d="M102.5 4.4002L102.2 6.6002C101.8 6.4002 101.3 6.3002 100.8 6.3002C99.8 6.3002 99 6.9002 99 8.2002V12.8002H97.6C97.1 12.8002 96.7 12.4002 96.7 11.9002V4.4002H98C98.5 4.4002 98.9 4.8002 98.9 5.3002C99.4 4.5002 100.2 4.2002 101.3 4.2002C101.8 4.2002 102.2 4.3002 102.5 4.4002Z" fill="#180048"/>
<path d="M41.6 0.700195H34.4C33.2 0.700195 32.2 1.7002 32.2 2.9002H38.5L31.7 11.6002C31.3 12.1002 31.7 12.8002 32.3 12.8002H41.8C41.8 11.6002 40.8 10.6002 39.6 10.6002H35.5L42.3 1.9002C42.5 1.4002 42.2 0.700195 41.6 0.700195Z" fill="#180048"/>
<path d="M37.8 20.8C37.7 20.5 37.6 20.1 37.4 19.8C37.3 19.4 37.1 19.1 37 18.7C36.8 18.3 36.7 18 36.5 17.6C36.3 17.2 36.2 16.9 36 16.6L35 20.8H34L35.4 15H36.2C36.4 15.3 36.5 15.5 36.7 15.9C36.9 16.2 37 16.6 37.2 16.9C37.4 17.3 37.5 17.6 37.7 18C37.9 18.4 38 18.7 38.1 19L39 15H40L38.6 20.8H37.8Z" fill="#180048"/>
<path d="M40.2 19.1999C40.2 18.7999 40.3 18.4999 40.4 18.0999C40.5 17.7999 40.7 17.3999 40.9 17.1999C41.1 16.8999 41.4 16.6999 41.7 16.5999C42 16.3999 42.3999 16.3999 42.7999 16.3999C43.1999 16.3999 43.5999 16.4999 43.7999 16.6999C43.9999 16.8999 44.2 17.1999 44.2 17.4999C44.2 17.8999 44.1 18.0999 43.9 18.3999C43.7 18.5999 43.5 18.7999 43.2 18.8999C42.9 18.9999 42.5999 19.0999 42.2999 19.1999C41.9999 19.1999 41.6 19.2999 41.2 19.2999V19.3999C41.2 19.8999 41.5 20.1999 42.2 20.1999C42.6 20.1999 42.9999 20.0999 43.2999 19.9999L43.4 20.7999C43.3 20.8999 43.0999 20.8999 42.7999 20.9999C42.5999 21.0999 42.3 21.0999 42 21.0999C41.7 21.0999 41.4 21.0999 41.2 20.9999C41 20.8999 40.8 20.7999 40.7 20.5999C40.6 20.3999 40.5 20.2999 40.4 20.0999C40.2 19.5999 40.2 19.3999 40.2 19.1999ZM42.5999 17.0999C42.3999 17.0999 42.2999 17.0999 42.0999 17.1999C41.8999 17.2999 41.8 17.3999 41.7 17.4999C41.6 17.5999 41.5 17.7999 41.4 17.8999C41.3 18.0999 41.3 18.1999 41.2 18.3999C41.9 18.3999 42.4 18.2999 42.7 18.1999C43 18.0999 43.2 17.8999 43.2 17.5999C43.2 17.4999 43.1999 17.3999 43.0999 17.2999C42.8999 17.0999 42.7999 17.0999 42.5999 17.0999Z" fill="#180048"/>
<path d="M45.4001 20.7999C45.3001 20.1999 45.1 19.5999 45 18.7999C44.9 18.0999 44.8 17.2999 44.8 16.3999H45.8C45.8 16.5999 45.8 16.8999 45.8 17.1999C45.8 17.4999 45.8001 17.7999 45.9001 18.0999C45.9001 18.3999 45.9 18.6999 46 18.8999C46.1 19.0999 46.1 19.3999 46.1 19.5999C46.2 19.3999 46.4 19.1999 46.6 18.8999C46.8 18.5999 46.9 18.3999 47.1 18.0999C47.3 17.7999 47.4 17.4999 47.5 17.1999C47.6 16.8999 47.7 16.5999 47.8 16.3999H48.9001C48.8001 16.7999 48.6001 17.1999 48.4001 17.5999C48.2001 17.9999 48.0001 18.3999 47.7001 18.7999C47.5001 19.1999 47.2 19.4999 47 19.8999C46.8 20.1999 46.5 20.4999 46.3 20.7999H45.4001Z" fill="#180048"/>
<path d="M48.8 19.1999C48.8 18.7999 48.9 18.4999 49 18.0999C49.1 17.7999 49.3 17.3999 49.5 17.1999C49.7 16.8999 50 16.6999 50.3 16.5999C50.6 16.3999 51.0001 16.3999 51.4001 16.3999C51.8001 16.3999 52.2001 16.4999 52.4001 16.6999C52.6001 16.8999 52.8 17.1999 52.8 17.4999C52.8 17.8999 52.7 18.0999 52.5 18.3999C52.3 18.5999 52.1 18.7999 51.8 18.8999C51.5 18.9999 51.2001 19.0999 50.9001 19.1999C50.6001 19.1999 50.2 19.2999 49.8 19.2999V19.3999C49.8 19.8999 50.1 20.1999 50.8 20.1999C51.2 20.1999 51.6001 20.0999 51.9001 19.9999L52 20.7999C51.9 20.8999 51.7001 20.8999 51.4001 20.9999C51.2001 21.0999 50.9 21.0999 50.6 21.0999C50.3 21.0999 50 21.0999 49.8 20.9999C49.6 20.8999 49.4 20.7999 49.3 20.5999C49.2 20.3999 49.1 20.2999 49 20.0999C48.8 19.5999 48.8 19.3999 48.8 19.1999ZM51.2001 17.0999C51.0001 17.0999 50.9001 17.0999 50.7001 17.1999C50.5001 17.2999 50.4 17.3999 50.3 17.4999C50.2 17.5999 50.1 17.7999 50 17.8999C49.9 18.0999 49.9 18.1999 49.8 18.3999C50.5 18.3999 51 18.2999 51.3 18.1999C51.6 18.0999 51.8 17.8999 51.8 17.5999C51.8 17.4999 51.8001 17.3999 51.7001 17.2999C51.6001 17.0999 51.4001 17.0999 51.2001 17.0999Z" fill="#180048"/>
<path d="M56.2 17.2998C56.1 17.2998 56 17.1998 55.8 17.1998C55.7 17.1998 55.5 17.1998 55.3 17.1998C55.2 17.1998 55.1 17.1998 55 17.1998C54.9 17.1998 54.8 17.1998 54.7 17.2998L54 20.7998H53L54 16.5998C54.2 16.4998 54.5 16.4998 54.8 16.3998C55.1 16.2998 55.4 16.2998 55.7 16.2998C55.8 16.2998 55.8 16.2998 55.9 16.2998C56 16.2998 56.1 16.2998 56.1 16.2998C56.2 16.2998 56.3 16.2998 56.3 16.2998C56.4 16.2998 56.4 16.2998 56.5 16.3998L56.2 17.2998Z" fill="#180048"/>
<path d="M59.8 20C60 20 60.1 20 60.2 20C60.3 20 60.5 19.9 60.6 19.9C60.7 19.8 60.8 19.7 60.9 19.6C61 19.5 61 19.3 61 19.2C61 19.1 61 19 60.9 18.9C60.8 18.8 60.8 18.7 60.7 18.7C60.6 18.6 60.5 18.6 60.4 18.5C60.3 18.4 60.2 18.4 60 18.3C59.9 18.2 59.7 18.1 59.6 18.1C59.5 18 59.4 17.9 59.3 17.8C59.2 17.7 59.1 17.5 59.1 17.4C59 17.2 59 17.1 59 16.8C59 16.5 59 16.3 59.1 16.1C59.2 15.9 59.3 15.7 59.5 15.5C59.7 15.3 59.9 15.2 60.2 15.1C60.5 15 60.8 15 61.2 15C61.4 15 61.5 15 61.7 15C61.9 15 62 15.1 62.1 15.1C62.2 15.1 62.4 15.2 62.5 15.2C62.6 15.3 62.7 15.3 62.8 15.3L62.3 16.1C62.2 16 62 15.9 61.8 15.9C61.6 15.8 61.4 15.8 61.1 15.8C60.9 15.8 60.8 15.8 60.7 15.8C60.6 15.8 60.4 15.9 60.3 15.9C60.2 16 60.1 16 60.1 16.2C60 16.3 60 16.4 60 16.6C60 16.7 60 16.8 60.1 16.9C60.1 17 60.2 17.1 60.3 17.1C60.4 17.2 60.5 17.2 60.6 17.3C60.7 17.4 60.8 17.4 60.9 17.5C61.1 17.6 61.2 17.7 61.4 17.8C61.6 17.9 61.7 18 61.8 18.1C61.9 18.2 62 18.4 62.1 18.5C62.2 18.7 62.2 18.8 62.2 19.1C62.2 19.4 62.1 19.7 62 19.9C61.9 20.1 61.7 20.3 61.5 20.5C61.3 20.7 61 20.8 60.7 20.8C60.4 20.9 60.1 20.9 59.7 20.9C59.5 20.9 59.3 20.9 59.1 20.8C58.9 20.8 58.7 20.7 58.6 20.7C58.4 20.6 58.3 20.6 58.2 20.5C58.1 20.4 58 20.4 57.9 20.3L58.4 19.5C58.5 19.5 58.5 19.6 58.6 19.6C58.7 19.7 58.8 19.7 58.9 19.7C59 19.7 59.1 19.8 59.3 19.8C59.5 20 59.6 20 59.8 20Z" fill="#180048"/>
<path d="M63.9 15.2L65 15L64.7 16.3H66.1L65.9 17.1H64.5L64 19C64 19.1 64 19.2 63.9 19.3C63.9 19.4 63.9 19.5 63.9 19.5C63.9 19.6 63.9 19.6 63.9 19.7C63.9 19.8 63.9 19.8 64 19.9C64 19.9 64.1 20 64.2 20C64.3 20 64.4 20 64.5 20C64.7 20 64.8 20 64.9 19.9C65 19.9 65.2 19.8 65.3 19.8L65.4 20.6C65.3 20.7 65.1 20.7 64.9 20.8C64.7 20.9 64.5 20.9 64.2 20.9C63.7 20.9 63.4 20.8 63.2 20.6C63 20.4 62.9 20.1 62.9 19.7C62.9 19.6 62.9 19.4 62.9 19.3C62.9 19.2 62.9 19 63 18.8L63.9 15.2Z" fill="#180048"/>
<path d="M67.8 20.8998C67.3 20.8998 66.9 20.6998 66.6 20.3998C66.3 20.0998 66.2 19.6998 66.2 19.1998C66.2 18.8998 66.3 18.4998 66.4 18.1998C66.5 17.8998 66.7 17.4998 66.9 17.2998C67.1 16.9998 67.4 16.7998 67.7 16.5998C68 16.3998 68.4 16.2998 68.8 16.2998C69.3 16.2998 69.7 16.4998 70 16.7998C70.3 17.0998 70.4 17.4998 70.4 17.9998C70.4 18.2998 70.4 18.6998 70.3 18.9998C70.2 19.2998 70.1 19.6998 69.8 19.8998C69.6 20.1998 69.3 20.3998 69 20.5998C68.6 20.7998 68.3 20.8998 67.8 20.8998ZM68.6 17.0998C68.4 17.0998 68.2 17.1998 68 17.2998C67.8 17.3998 67.7 17.5998 67.6 17.7998C67.5 17.9998 67.4 18.1998 67.3 18.3998C67.2 18.5998 67.2 18.8998 67.2 19.0998C67.2 19.3998 67.3 19.5998 67.4 19.7998C67.5 19.9998 67.7 19.9998 68 19.9998C68.2 19.9998 68.4 19.8998 68.6 19.7998C68.8 19.6998 68.9 19.4998 69 19.2998C69.1 19.0998 69.2 18.8998 69.3 18.6998C69.4 18.4998 69.4 18.1998 69.4 17.9998C69.4 17.6998 69.3 17.4998 69.2 17.2998C69 17.1998 68.9 17.0998 68.6 17.0998Z" fill="#180048"/>
<path d="M75 17.9998C75 18.3998 74.9 18.7998 74.8 19.0998C74.7 19.3998 74.5 19.7998 74.2 19.9998C74 20.2998 73.7 20.4998 73.3 20.5998C73 20.7998 72.6 20.7998 72.1 20.7998C72 20.7998 71.9 20.7998 71.9 20.7998C71.8 20.7998 71.7 20.7998 71.7 20.7998L71.3 22.2998H70.3L71.7 16.5998C71.9 16.4998 72.2 16.3998 72.5 16.3998C72.8 16.2998 73.1 16.2998 73.3 16.2998C73.6 16.2998 73.8 16.2998 74.1 16.3998C74.3 16.4998 74.5 16.5998 74.6 16.7998C74.7 16.9998 74.8 17.0998 74.9 17.2998C75 17.4998 75 17.6998 75 17.9998ZM71.9 19.9998C72 19.9998 72 19.9998 72.1 19.9998C72.2 19.9998 72.2 19.9998 72.3 19.9998C72.6 19.9998 72.8 19.8998 73 19.7998C73.2 19.6998 73.4 19.5998 73.5 19.3998C73.7 19.1998 73.8 18.9998 73.8 18.7998C74 18.5998 74 18.2998 74 17.9998C74 17.8998 74 17.7998 74 17.6998C74 17.5998 73.9 17.4998 73.9 17.3998C73.8 17.2998 73.7 17.1998 73.6 17.1998C73.5 17.0998 73.4 17.0998 73.2 17.0998C73.1 17.0998 73 17.0998 72.9 17.0998C72.8 17.0998 72.7 17.0998 72.6 17.1998L71.9 19.9998Z" fill="#180048"/>
<path d="M81.3 19.9L81.1 20.8H77.5L78.9 15H80L78.8 19.9H81.3Z" fill="#180048"/>
<path d="M82.9 20.8H81.9L83 16.4H84L82.9 20.8ZM83.6 15.7C83.4 15.7 83.3 15.7 83.2 15.6C83.1 15.5 83 15.4 83 15.2C83 15 83.1 14.8 83.2 14.7C83.3 14.6 83.5 14.5 83.7 14.5C83.9 14.5 84 14.5 84.1 14.6C84.2 14.7 84.3 14.8 84.3 15C84.3 15.2 84.2 15.4 84.1 15.5C84 15.7 83.8 15.7 83.6 15.7Z" fill="#180048"/>
<path d="M85.2 20.7999C85.1 20.1999 84.9 19.5999 84.8 18.7999C84.7 18.0999 84.6 17.2999 84.6 16.3999H85.6C85.6 16.5999 85.6 16.8999 85.6 17.1999C85.6 17.4999 85.6 17.7999 85.7 18.0999C85.7 18.3999 85.7 18.6999 85.8 18.8999C85.8 19.1999 85.9 19.3999 85.9 19.5999C86 19.3999 86.2 19.1999 86.4 18.8999C86.6 18.5999 86.7 18.3999 86.9 18.0999C87.1 17.7999 87.2 17.4999 87.3 17.1999C87.4 16.8999 87.5 16.5999 87.6 16.3999H88.7C88.6 16.7999 88.4 17.1999 88.2 17.5999C88 17.9999 87.8 18.3999 87.5 18.7999C87.3 19.1999 87 19.4999 86.8 19.8999C86.6 20.1999 86.3 20.4999 86.1 20.7999H85.2Z" fill="#180048"/>
<path d="M89.4 20.8H88.4L89.5 16.4H90.5L89.4 20.8ZM90.2 15.7C90 15.7 89.9 15.7 89.8 15.6C89.7 15.5 89.6 15.4 89.6 15.2C89.6 15 89.7 14.8 89.8 14.7C89.9 14.6 90.1 14.5 90.3 14.5C90.5 14.5 90.6 14.5 90.7 14.6C90.8 14.7 90.9 14.8 90.9 15C90.9 15.2 90.8 15.4 90.7 15.5C90.5 15.7 90.4 15.7 90.2 15.7Z" fill="#180048"/>
<path d="M91.7 16.5998C91.9 16.4998 92.2 16.4998 92.5 16.3998C92.8 16.2998 93.1 16.2998 93.4 16.2998C93.9 16.2998 94.3 16.3998 94.5 16.6998C94.7 16.9998 94.9 17.2998 94.9 17.6998C94.9 17.7998 94.9 17.8998 94.9 18.0998C94.9 18.1998 94.9 18.3998 94.8 18.4998L94.2 20.7998H93.2L93.7 18.5998C93.7 18.4998 93.8 18.3998 93.8 18.1998C93.8 18.0998 93.8 17.8998 93.8 17.7998C93.8 17.5998 93.8 17.3998 93.7 17.2998C93.6 17.1998 93.4 17.0998 93.1 17.0998C92.9 17.0998 92.7 17.0998 92.5 17.1998L91.7 20.6998H90.7L91.7 16.5998Z" fill="#180048"/>
<path d="M96.6 21.4998C97 21.4998 97.3 21.3998 97.5 21.1998C97.7 20.9998 97.8 20.7998 97.9 20.3998V20.2998C97.8 20.3998 97.7 20.3998 97.5 20.4998C97.3 20.4998 97.2 20.5998 97 20.5998C96.5 20.5998 96.1 20.4998 95.9 20.1998C95.7 19.8998 95.5 19.5998 95.5 19.0998C95.5 18.6998 95.6 18.2998 95.7 17.9998C95.8 17.6998 96 17.3998 96.3 17.0998C96.6 16.8998 96.9 16.6998 97.2 16.4998C97.6 16.3998 98 16.2998 98.4 16.2998C98.6 16.2998 98.8 16.2998 99.1 16.3998C99.4 16.4998 99.6 16.4998 99.8 16.5998L98.9 20.2998C98.8 20.5998 98.7 20.8998 98.6 21.1998C98.5 21.4998 98.3 21.6998 98.1 21.7998C97.9 21.9998 97.7 22.0998 97.4 22.1998C97.1 22.2998 96.8 22.2998 96.4 22.2998C96.1 22.2998 95.8 22.2998 95.6 22.1998C95.4 22.0998 95.2 22.0998 95 21.9998L95.4 21.1998C95.6 21.2998 95.7 21.3998 95.9 21.3998C96.1 21.3998 96.4 21.4998 96.6 21.4998ZM97.4 19.6998C97.5 19.6998 97.7 19.6998 97.9 19.5998C98.1 19.4998 98.2 19.4998 98.3 19.3998L98.8 17.1998C98.7 17.1998 98.5 17.1998 98.4 17.1998C98.1 17.1998 97.9 17.1998 97.7 17.2998C97.5 17.3998 97.3 17.4998 97.2 17.6998C97 17.8998 96.9 17.9998 96.8 18.2998C96.7 18.4998 96.7 18.6998 96.7 18.9998C96.7 19.1998 96.8 19.3998 96.9 19.5998C96.9 19.5998 97.1 19.6998 97.4 19.6998Z" fill="#180048"/>
</svg>
