<svg xmlns="http://www.w3.org/2000/svg" width="67px" height="22px" viewBox="0 0 170 54" fill="#200b4f"><path d="M83.6 53.4H26.4C14 53.4 3.4 44.9.7 32.8-2 20.6 3.8 8.4 14.9 2.8 18.6.9 22.5 0 26.7 0H141c12.7 0 23.6 8.8 26.3 21.3 2.5 11.8-3.2 23.7-14 29.1-4 2-8.2 3-12.7 3h-57zM41.5 41.5v2.2c0 1.4 1 2.6 2.3 3 2.1.6 4.1-.9 4.1-3.2V26.6c0-1.2-.1-2.4-.4-3.7C45.4 12.2 35.2 5.2 24.4 7.1 13.7 8.9 6.4 19.2 8.2 30c1.5 9.2 9.1 16.1 18.4 16.7 5.1.3 9.7-1.1 13.7-4.3.4-.2.7-.5 1.2-.9zm100.8 5.3c3 0 7.8-1.9 11.6-5.7 4.3-4.3 6.3-9.5 6-15.6-.6-9.9-8.8-18.6-19.9-18.7-10.8-.1-20.4 8.7-20 20.7.2 10.4 8.8 19.3 22.3 19.3zM97.4 30.4c.2.1.2.1.3.2 3.2 2.7 6.4 5.3 9.6 8 2.9 2.4 5.9 4.9 8.8 7.3.7.6 1.5.9 2.4.8 1.4-.2 2.4-.9 2.8-2.3.4-1.4 0-2.5-1.1-3.4-5.5-4.6-11.1-9.3-16.6-13.9-.7-.6-.7-.5 0-1.1 5.6-4.6 11.1-9.1 16.7-13.7.7-.6 1.1-1.3 1.1-2.2.1-1.4-.5-2.5-1.8-3.1-1.3-.6-2.5-.4-3.7.5-5.3 4.4-10.6 8.8-16 13.2-.8.7-1.7 1.4-2.6 2.2v-.7V10c0-2.4-2.1-3.9-4.3-3.2-1.2.3-2 1.5-2 3v34c.2 1.7 1.9 3 3.5 2.7 1.8-.3 2.9-1.5 2.9-3.3V31v-.6zM72.2 46.7h1.4c.3 0 .5-.1.8-.1 4.3-.5 8.1-2.2 11.3-5 .9-.8 1.2-1.9 1-3-.5-2.5-3.4-3.4-5.4-1.7-3.3 2.9-7.2 4-11.5 3.2-7.4-1.4-12.3-8.3-11-15.8 1.3-7.9 9.5-13 17.2-10.7 2 .6 3.8 1.6 5.4 3 1.4 1.2 3.4 1 4.6-.4 1.1-1.3 1-3.4-.4-4.5-5-4.3-10.7-5.9-17.2-4.7-10.8 2-18 12.6-16 23.4 1.8 9.5 10.1 16.4 19.8 16.3z"></path><path d="M14.4 26.8c0-7.5 6-13.5 13.6-13.5 7.5 0 13.6 6.1 13.5 13.6 0 7.6-6.3 13.7-13.8 13.5-7.7-.2-13.5-6.6-13.3-13.6zM138.8 40.4c-3.5-.3-6.5-1.8-8.9-4.3-1.9-2-3.1-4.5-3.5-7.2-1.1-7.2 3.6-14 10.8-15.4 7.4-1.5 14.3 3.1 16 10.1.3 1.2.4 2.5.4 3.7-.2 6.7-5.2 12.1-11.5 13.1-.3 0-.6.1-.9.1-.8-.1-1.6-.1-2.4-.1z"></path><path d="M138.8 40.4h2.4c-.8.1-1.6.1-2.4 0z"></path></svg>