<svg xmlns="http://www.w3.org/2000/svg" width="99px" height="27px" viewBox="0 0 158 43" fill="#200b4f"><path d="M115.5 21.8V11.6c0-.3.1-.4.4-.5 2.3-.4 4.6-.6 6.9-.5 1.2.1 2.4.2 3.4.8.2.1.3 0 .5 0 2.4-.9 4.9-1.1 7.4-.5 2 .5 3.3 2.1 3.4 4.2.1.6.1 1.2.1 1.8v15c0 .4-.1.5-.5.5H133c-.3 0-.4-.1-.4-.4V17.1c0-1.3-.7-2-2-1.9-.6 0-1.1.1-1.6.3-.2.1-.3.2-.3.4.1.4.1.8.1 1.3v14.9c0 .3-.1.5-.4.4h-3.5c-.4 0-.4-.1-.4-.4V17.5 17c-.1-1.3-.7-1.8-2-1.8h-1.4c-.3 0-.5.1-.5.5v16.4c0 .4-.1.5-.5.5H116c-.3 0-.4-.1-.4-.4-.1-3.6-.1-7-.1-10.4zM112.6 17.2c0-.4 0-.8-.1-1.3-.2-1.4-.7-2.6-1.8-3.5-1.2-1-2.7-1.4-4.2-1.4-2.6-.1-5.3 0-7.9 0-.4 0-.5.1-.5.5V32c0 .4.1.4.4.4h4.1c.4 0 .5-.1.4-.5v-6.6c0-.3.1-.4.4-.4h3.6c.3 0 .4.1.4.4v6.6c0 .4.1.5.5.5h4.2c.3 0 .4-.1.4-.4.1-5 .1-9.9.1-14.8zm-5.1 3c0 .8 0 .8-.8.8h-3.2c-.3 0-.4-.1-.4-.4v-2.9-2.9c0-.3 0-.4.3-.4h2.4c1.1.1 1.7.7 1.7 1.9v3.9zM81.6 26.5c0-.7-.1-1.3-.4-2-.4-.9-1.2-1.3-2.2-1.5.2-.1.3-.2.5-.3 1-.7 1.6-1.6 1.6-2.8 0-1.8.1-3.7-.1-5.5-.2-1.5-1-2.5-2.5-3.1-.6-.2-1.1-.3-1.7-.3h-9.3c-.3 0-.3.2-.3.4v20.7c0 .3.1.4.4.4h4.2c.4 0 .4-.1.4-.5v-6.7c0-.3.1-.4.4-.3h2.3c1.1 0 1.5.4 1.5 1.5v5.6c0 .3 0 .4.3.4h4.4c.3 0 .3-.1.3-.3.2-2 .2-3.9.2-5.7zm-5.5-7.3c0 1.3-.5 1.8-1.8 1.8h-1.6c-.3 0-.4-.1-.4-.4v-2.9-2.9c0-.3 0-.4.4-.4h1.7c1.1 0 1.7.6 1.7 1.7v3.1zM64.8 16.4c0-1.5-.6-2.8-1.7-3.8-1.3-1.1-2.8-1.6-4.4-1.6h-9.3c.4.6.8 1.1 1.2 1.7.2.2.2.4.2.7v16.5c0 .4-.1.8-.4 1.1-.4.5-.7 1-1.1 1.5h8.8c.7 0 1.4-.1 2.1-.2 2.8-.6 4.5-2.7 4.6-5.4V16.4zm-7.1 12.1h-1.6c-.3 0-.4-.1-.4-.4v-6.5-6.5c0-.3.1-.4.4-.4h1.7c1.2.1 1.9.9 1.9 2v9.7c.1 1.3-.7 2.1-2 2.1zM83.9 21.7v-5.9c0-.8.1-1.6.5-2.4.7-1.5 2-2.2 3.6-2.4.5-.1.9-.1 1.4-.1h5.9c.3 0 .4.1.4.4v3.2c0 .3-.1.4-.4.4H90c-.7 0-1.1.3-1.1 1v3.3c0 .3.1.4.4.4h5.1c.3 0 .4.1.4.4v3.2c0 .3-.1.4-.4.4h-5.1c-.4 0-.4.1-.4.4v3.3c0 .7.3 1 1 1h5.3c.4 0 .4.1.4.4v3.2c0 .3-.1.4-.4.3h-6.3c-.6 0-1.2-.1-1.7-.2-1.9-.5-3-1.8-3.2-3.8 0-.4-.1-.8-.1-1.3v-5.2zM157.7 21.7V32c0 .4-.1.5-.5.5H153c-.3 0-.4-.1-.4-.4v-16c0-.4-.1-.5-.5-.5h-1.5c-.2 0-.3-.1-.2-.3.4-1.4.9-2.7 1.3-4.1.1-.2.2-.2.3-.2h5.3c.4 0 .3.2.3.4.1 3.4.1 6.8.1 10.3zM140.9 15.5c.5-1.5.9-2.9 1.4-4.4 0-.2.1-.2.3-.2h5.3c.3 0 .3.1.3.3V31.9c0 .4-.1.5-.5.5h-4.2c-.3 0-.4-.1-.4-.4V15.9c0-.3-.1-.5-.4-.4h-1.8zM44 9c0-.2-.1-.3-.2-.4-.7-.4-1.3-.9-2-1.2-1-.5-2-1-3.1-1.5v3.5c0 .2.2.2.3.3.5.3 1 .5 1.5.8.2.1.3.2.3.5v4.8c-.1 2-.5 4-1.5 5.8-.9 1.5-2.1 2.7-3.3 3.9-3 2.7-6.3 5.2-9.5 7.6-.7.5-1.4 1.1-2.2 1.6-.1-.3.1-.3.2-.4 1.4-1.2 2.7-2.3 4.1-3.5 1.7-1.5 3.4-2.9 4.9-4.6 2.5-3 4-6.4 4.1-10.4.1-4.2 0-8.5 0-12.7 0-.2-.1-.3-.3-.4-1-.4-2-.7-3-1C30.2.5 26-.1 21.7 0c-2.8.1-5.6.3-8.3.9-2 .4-4 .9-5.9 1.8-.4.1-.6.1-.6.4.1 4.4 0 8.9.1 13.3.1 2.3.7 4.4 1.7 6.4 1.3 2.4 3.1 4.4 5.1 6.2 2 1.8 4 3.5 6 5.3.1.1.3.2.2.5-.1 0-.1-.1-.2-.1-3-2.1-5.9-4.3-8.7-6.6-1.5-1.2-3-2.4-4.3-3.9-1.6-1.8-2.8-3.8-3-6.3-.3-2.3-.3-4.7-.2-7.1 0-.2.1-.2.2-.3.5-.3 1-.5 1.6-.8.1-.1.3-.1.3-.3V5.9c-.1.1-.1.1-.2.1-1.8.7-3.5 1.6-5 2.7-.2.1-.2.3-.2.4 0 1.9-.1 3.7 0 5.6.1 1.5.2 3 .6 4.4.8 2.9 2.6 5.2 4.9 7 3.7 2.9 7.6 5.6 11.5 8.3.8.6 1.7 1.1 2.5 1.7-1.3 1-2.5 2.1-3.7 3-1 .8-1.7 1.8-1.5 3.2v.1c-.1.5 0 .6.4.6h14c.8 0 .7 0 .8-.8.1-1.2-.4-2-1.3-2.7-.9-.7-1.7-1.4-2.6-2.1-.2-.2-.4-.2-.6-.1-2.2 1-4.3 2-6.5 3-.1.1-.2.2-.5.1l1.8-1.2c4.6-3.2 9.3-6.3 13.9-9.5 2.2-1.5 4.3-3 6.1-4.9 2.3-2.4 3.6-5.3 3.8-8.7.2-2.4.1-4.7.1-7.1zM21.1 26.4h-6.8c.5-.6 1-1.1 1.5-1.6.2-.2.3-.4.3-.6V6.8c0-.3-.1-.5-.3-.6-.5-.5-1-1-1.5-1.6h9c1.3 0 2.6 0 3.8.5 2 .8 3.4 2.8 3.4 5v10.7c0 2.8-2.2 5.1-5.1 5.5-1.5.1-2.9.1-4.3.1z"></path><path d="M25.2 10v10.2c0 1.5-.7 2.2-2.2 2.2h-1.6c-.3 0-.4-.1-.4-.4v-6.7-6.7c0-.3.1-.4.4-.4h1.8c.6 0 1.1.2 1.5.6.4.3.5.7.5 1.2z"></path></svg>