<svg width="96" height="21" viewBox="0 0 96 21" fill="none" xmlns="http://www.w3.org/2000/svg">
<path d="M47.0222 11.771C46.995 11.8842 46.9665 11.974 46.9526 12.0658C46.7738 13.2235 46.5969 14.3813 46.4187 15.539C46.2179 16.8429 46.0205 18.1475 45.8138 19.4507C45.7131 20.0866 45.4779 20.2745 44.7935 20.2764C43.497 20.2801 42.2005 20.2776 40.9047 20.277C40.8059 20.277 40.7066 20.2757 40.6098 20.2631C40.1203 20.2011 39.8056 19.831 39.8639 19.3577C39.9281 18.8371 40.0162 18.3189 40.0964 17.7995C40.2508 16.8018 40.4071 15.8041 40.5615 14.8064C40.7748 13.4228 40.9855 12.0386 41.1995 10.6543C41.4665 8.92466 41.7361 7.19562 42.0044 5.46595C42.2045 4.17533 42.4065 2.88536 42.6007 1.59348C42.6802 1.06268 42.7954 0.734336 43.6732 0.720418C44.3351 0.710295 44.9976 0.71852 45.6601 0.717887C46.2093 0.717887 46.7592 0.714724 47.3084 0.719785C47.4621 0.721051 47.6158 0.743193 47.7695 0.760907C48.0954 0.798234 48.3035 0.983601 48.4353 1.25817C48.4883 1.36825 48.5347 1.48087 48.5824 1.59285C49.6225 4.02034 50.662 6.44783 51.7028 8.87531C51.7445 8.97274 51.7942 9.06701 51.8525 9.18911C51.9565 9.08788 51.9572 8.98034 51.9717 8.88417C52.1473 7.75362 52.3202 6.6218 52.4944 5.49125C52.6952 4.18736 52.8966 2.88346 53.0993 1.57956C53.1159 1.47327 53.1344 1.36509 53.1728 1.26513C53.2702 1.01207 53.4385 0.820377 53.7327 0.769132C53.8844 0.743193 54.0387 0.72105 54.1924 0.720418C55.4465 0.716622 56.7007 0.716622 57.9548 0.720418C58.1085 0.72105 58.2648 0.738132 58.4146 0.770397C58.8743 0.869724 59.1254 1.21958 59.0585 1.66687C58.9532 2.37227 58.8412 3.07705 58.7319 3.78246C58.4888 5.3527 58.2463 6.92231 58.0031 8.49256C57.7335 10.2355 57.4625 11.9785 57.1936 13.7214C56.9551 15.2651 56.7186 16.8088 56.4807 18.3525C56.4231 18.7251 56.3668 19.0977 56.3071 19.4697C56.2919 19.5627 56.2733 19.6564 56.2435 19.7456C56.1561 20.0087 55.9739 20.1853 55.6864 20.2416C55.5499 20.2681 55.4068 20.2764 55.267 20.2764C54.0268 20.2789 52.7873 20.2751 51.5471 20.2795C51.035 20.2814 50.7044 20.22 50.4255 19.5634C49.3734 17.0827 48.3035 14.609 47.2382 12.1328C47.1845 12.0133 47.154 11.8779 47.0222 11.771Z" fill="#180048"/>
<path d="M76.5233 12.6438C76.5531 11.3064 76.73 10.1518 77.005 9.00733C77.3746 7.46999 78.0033 6.04082 78.9176 4.72617C80.0008 3.16858 81.3894 1.93681 83.1708 1.13903C84.5859 0.505112 86.0825 0.202704 87.6447 0.308989C89.0545 0.405153 90.3834 0.770193 91.5693 1.54709C92.8645 2.39611 93.796 3.51907 94.3591 4.91091C94.9553 6.38625 95.2164 7.91348 95.068 9.5008C94.9269 11.0103 94.6267 12.4838 94.0252 13.8901C93.3395 15.4933 92.3617 16.9149 91.0241 18.0903C89.7057 19.25 88.182 20.0591 86.4217 20.447C85.3829 20.676 84.3381 20.781 83.2768 20.6614C82.0446 20.5222 80.8839 20.1869 79.8457 19.5068C78.6963 18.7533 77.8642 17.7595 77.3289 16.5397C76.9122 15.5907 76.6737 14.5956 76.579 13.5707C76.5452 13.2081 76.5346 12.8444 76.5233 12.6438ZM89.1969 9.13323C89.2088 8.56511 89.1671 8.00142 89.0313 7.44911C88.8776 6.82531 88.6113 6.25213 88.1164 5.79599C87.8653 5.56507 87.5711 5.41576 87.2286 5.36009C86.5827 5.25507 85.9659 5.32783 85.3948 5.65427C84.9669 5.89848 84.6071 6.21797 84.2865 6.57921C83.7412 7.19162 83.3669 7.89513 83.0754 8.64482C82.4739 10.1936 82.3175 11.7821 82.607 13.4081C82.7144 14.0123 82.9476 14.5728 83.3543 15.0568C83.6684 15.4307 84.0705 15.6559 84.5766 15.7014C85.263 15.7634 85.891 15.616 86.4535 15.2295C86.9265 14.9037 87.3346 14.5152 87.652 14.0477C88.6636 12.5521 89.183 10.9141 89.1969 9.13323Z" fill="#180048"/>
<path d="M26.7516 0.718903C27.3571 0.718903 27.9633 0.715107 28.5688 0.721433C28.7364 0.723331 28.9073 0.73725 29.0703 0.771413C29.5301 0.866944 29.7818 1.21237 29.7248 1.66409C29.6858 1.97092 29.6308 2.27586 29.5831 2.58207C29.1723 5.22909 28.7609 7.87611 28.3502 10.5231C28.2077 11.4411 28.058 12.3578 27.9321 13.2777C27.8904 13.582 27.8751 13.8996 27.9169 14.202C28.0083 14.8587 28.3608 15.3648 29.0213 15.6179C29.4956 15.7995 29.9885 15.7792 30.4629 15.5957C31.2565 15.2883 31.8197 14.7436 32.1867 14.0116C32.3271 13.7319 32.4252 13.4397 32.4729 13.129C32.773 11.1596 33.0797 9.19139 33.3852 7.22258C33.6555 5.48025 33.9277 3.73792 34.1994 1.9956C34.2325 1.78303 34.2636 1.56982 34.3074 1.35915C34.3769 1.01878 34.5902 0.81127 34.9553 0.76129C35.0937 0.742311 35.2342 0.722066 35.374 0.721433C36.6135 0.71827 37.8537 0.71827 39.0932 0.721433C39.233 0.722066 39.3748 0.736617 39.5113 0.763188C40.0194 0.861882 40.2798 1.20478 40.2149 1.69825C40.1672 2.05823 40.1042 2.41694 40.0486 2.77566C39.8909 3.78664 39.7312 4.79698 39.5749 5.80796C39.3589 7.20486 39.1462 8.60239 38.9296 9.99866C38.7792 10.9698 38.6348 11.9415 38.4698 12.9101C38.279 14.0325 37.9438 15.1118 37.3575 16.1101C36.8017 17.0565 36.1213 17.9068 35.2474 18.6091C34.0483 19.5732 32.6789 20.1901 31.1459 20.5045C29.5215 20.8373 27.9209 20.7803 26.3574 20.254C24.2771 19.5542 22.9077 18.194 22.2817 16.1556C21.9047 14.9277 21.8868 13.6921 22.0829 12.4401C22.391 10.4719 22.6918 8.50243 22.9958 6.53362C23.2489 4.89758 23.5066 3.26154 23.7524 1.62486C23.8525 0.960576 24.1234 0.723331 24.8489 0.720168C25.4835 0.717005 26.1175 0.718903 26.7516 0.718903Z" fill="#180048"/>
<path d="M68.5699 5.80059C68.4897 5.77908 68.4387 5.75567 68.3863 5.75314C68.2598 5.74618 68.1326 5.74808 68.0061 5.74808C66.0331 5.74808 64.0609 5.74871 62.088 5.74682C61.9197 5.74682 61.7481 5.74618 61.5825 5.72088C61.0836 5.64433 60.8173 5.31978 60.857 4.84212C60.8729 4.65486 60.9107 4.46949 60.9399 4.28286C61.0777 3.39145 61.2148 2.50004 61.3546 1.60863C61.3731 1.48906 61.395 1.36886 61.4321 1.25371C61.5136 1.00445 61.6852 0.835529 61.9581 0.78112C62.1092 0.751386 62.2635 0.73557 62.4166 0.721019C62.5 0.712794 62.5855 0.719121 62.6703 0.719121C67.4469 0.719121 72.2235 0.718488 77.0002 0.721651C77.2241 0.721651 77.4526 0.732406 77.6699 0.776692C78.1019 0.865896 78.3464 1.24422 78.2715 1.65988C78.2344 1.86612 78.1257 2.03504 77.9946 2.19637C77.4851 2.82333 76.9756 3.45028 76.4688 4.07914C74.2442 6.84004 72.0208 9.60157 69.7961 12.3631C69.1005 13.2267 68.4042 14.0896 67.7093 14.9538C67.653 15.024 67.6086 15.1025 67.5463 15.1955C67.694 15.267 67.8206 15.2461 67.9411 15.2461C69.4205 15.2474 70.8999 15.2474 72.3792 15.2474C72.8721 15.2474 73.3657 15.2448 73.8586 15.2493C73.9984 15.2505 74.1375 15.2708 74.2766 15.2866C74.8 15.3461 75.0517 15.8572 74.9848 16.228C74.9179 16.5987 74.8676 16.9726 74.8093 17.3452C74.7033 18.0235 74.5979 18.7023 74.4899 19.3805C74.4734 19.4868 74.4509 19.5924 74.425 19.6968C74.3455 20.022 74.1242 20.2067 73.785 20.2555C73.6327 20.2776 73.4763 20.2776 73.322 20.2776C71.3775 20.2789 69.4331 20.2782 67.4887 20.2782C64.685 20.2782 61.8806 20.2782 59.0769 20.2776C58.9219 20.2776 58.7669 20.277 58.6125 20.2656C57.8851 20.2099 57.7201 19.4583 57.9791 19.061C58.0315 18.9813 58.0871 18.9035 58.1474 18.8288C60.6497 15.7124 63.1533 12.5959 65.6555 9.47947C66.5724 8.33753 67.4867 7.19369 68.4009 6.04986C68.4599 5.97837 68.5049 5.89802 68.5699 5.80059Z" fill="#180048"/>
<path d="M0.945447 19.681C1.67618 18.6523 6.43558 12.3625 7.35182 11.156C7.48233 10.9839 7.7798 10.8334 8.05076 11.0611C8.06401 11.0725 8.30383 11.2825 8.31642 11.2933C9.53873 12.3283 10.4232 13.0312 11.6442 14.0675C11.7011 14.1156 11.7588 14.1624 11.8177 14.2092C11.9423 14.3079 12.1291 14.2845 12.2199 14.1573C12.253 14.1111 12.2821 14.0643 12.3153 14.0207C13.3156 12.7035 14.3127 11.3838 15.3104 10.0647C16.5559 8.41852 17.8008 6.77236 19.0476 5.12746L19.0496 5.12493C19.1721 4.9636 19.4285 4.98891 19.518 5.16858C19.5219 5.17617 19.5253 5.18377 19.5292 5.19136C19.8929 5.88095 20.1129 6.61736 20.2851 7.36769C20.5674 8.5963 20.5024 9.82302 20.2666 11.0529C19.8837 13.0476 18.9635 14.7906 17.5994 16.3299C16.2624 17.8394 14.6261 18.9541 12.6876 19.6456C11.56 20.048 10.39 20.2763 9.17767 20.2757C6.72708 20.2744 4.2765 20.2776 1.82591 20.277C1.69937 20.277 1.57217 20.2713 1.44762 20.2523C1.22966 20.22 1.05542 20.1321 0.944122 19.9727C0.881847 19.8847 0.88251 19.769 0.945447 19.681Z" fill="#180048"/>
<path d="M11.5261 10.3885C11.5003 10.4328 11.3936 10.589 11.1789 10.4378C11.0637 10.3562 11.1041 10.3916 11.0113 10.3163C9.78106 9.31043 8.72901 8.44496 7.50008 7.43651C7.15293 7.13727 6.81373 7.27455 6.64479 7.63896C5.84648 9.21173 5.1694 10.5245 4.37242 12.0979C3.28724 14.2401 2.20141 16.3822 1.11424 18.5238C1.01487 18.7401 0.877733 18.6857 0.892308 18.587C1.05064 17.5495 1.21031 16.5119 1.37063 15.475C1.61112 13.9187 1.85161 12.363 2.09209 10.8067C2.33258 9.25033 2.57174 7.69463 2.81157 6.13831C3.02887 4.72875 3.24551 3.31857 3.46413 1.90902C3.49063 1.73631 3.51514 1.56233 3.55887 1.39278C3.64367 1.06569 3.84176 0.839836 4.21011 0.789224C4.34857 0.770245 4.48902 0.753163 4.6288 0.753163C7.05157 0.751265 9.47366 0.739877 11.8964 0.756326C13.3095 0.765816 14.661 1.05873 15.9231 1.68443C15.9317 1.68886 15.9403 1.69329 15.9489 1.69771C15.8701 1.86347 13.0319 7.42069 11.5261 10.3885Z" fill="#180048"/>
</svg>
