<?xml version="1.0" encoding="utf-8"?>
<!-- Generator: Adobe Illustrator 24.3.0, SVG Export Plug-In . SVG Version: 6.00 Build 0)  -->
<svg version="1.1" id="Layer_1" xmlns="http://www.w3.org/2000/svg" xmlns:xlink="http://www.w3.org/1999/xlink" x="0px" y="0px"
	 viewBox="0 0 122 40" style="enable-background:new 0 0 122 40;" xml:space="preserve">
<style type="text/css">
	.st0{fill-rule:evenodd;clip-rule:evenodd;fill:#180048;}
</style>
<desc>Created with sketchtool.</desc>
<g id="Payouts">
	<g id="Use-Cases---Payouts" transform="translate(-572.000000, -1267.000000)">
		<g id="Group-2-Copy-3" transform="translate(522.000000, 1154.000000)">
			<g id="Group-99">
				<g id="nykaa-1" transform="translate(50.000000, 113.000000)">
					<path id="Shape" class="st0" d="M35.1,2c1.3-2.5-2.9-1.8-2.9-1.8c-1.5,0-2.2,1.8-2.5,2.4l-4.6,9c-0.9,1.5-3.7,7.9-4.7,9.3
						c-0.1-1.4,0-4.3,0.1-5c0.2-2.7,0.4-4.8,0.7-7.3c0.2-1.9,0.6-4.1,0.2-6.1c-0.3-1.2-0.7-1.3-2.4-1.5c-1.8-0.2-3,2.4-3.7,3.7
						c-2.2,4.6-4.7,9-6.7,13.7c-0.6,1.4-1.3,2.7-1.9,4.1c-0.7,1.6-1.4,3.2-2.1,4.8c-0.8,1.7-3.4,7.2-4.1,8.9
						c-0.8,1.9-0.9,3.4,2.2,3.3c0.5,0,1.6,0.1,3-1.4c1.1-1.2,1.3-2.2,1.9-3.8c2.3-5.7,3.9-9.4,6.3-15c0.2-0.6,0.8-2.2,1.3-3.4
						c0,1.8-0.3,3.9-0.4,5.2c-0.4,5.1-0.7,10-1.2,15c-0.1,0.7-0.2,1.5,0.1,2.1c0.3,0.6,1.1,0.8,1.7,0.9c2.5,0.3,2.8-0.9,3.6-2.7
						c0.7-1.5,1.1-2.8,1.8-4.4c1.9-4.9,4-9.7,6.3-14.4c0.6-1.2,1.2-2.4,1.8-3.6C30,12.1,31,10,32.2,7.6C33.2,5.9,34.1,3.9,35.1,2
						L35.1,2z M121.7,15.7c-0.3-2.9-4.3-1.4-6.7-1c-0.9,0.2-3.7,0.7-6.8,1.3c-0.1-3.3-0.1-2.6-0.1-4.6c-0.1-2.9-0.2-5.1-0.4-7.7
						c-0.1-1.6-0.3-3.8-3.2-3.4c-3.4,0.5-3.9,2.2-4.8,4.2c-2.3,5.3-2.3,5.3-4.9,11.2c-0.2,0.4-1.2,2.8-1.3,3.3
						c-0.1,0-0.3,0.1-0.6,0.2c-1.1,0.2-2.4,0.5-3.8,0.8l0-0.1c0.3-2.7,0.8-5.4,1.1-8c0.3-2.4,0.7-6.4,1-8.9c0.3-2.6-2.7-2.6-2.7-2.6
						c-1.9-0.1-2.6,0.4-3.8,2c-2,2.6-4.5,5.5-6.6,8.3c-3.9,5.2-6.8,9.2-10.3,14.4c-1,1.5-2.6,3.8-4,5.6c-0.9-1.8-1.7-3.8-2.5-5.6
						c-1.1-2.6-1.9-4.2-2.4-6c-0.5-1.5,0.1-1.7,1.2-2.6c3.3-2.5,6.9-4.2,10.3-6.5c2.4-1.7,5.2-3.5,7.5-5.3c0,0,1.3-0.8,2.1-1.8
						c0.9-1.3-1.7-2.6-1.7-2.6c-1.5-0.2-2.3,0.1-3.3,0.6c-1.1,0.5-2.4,1.5-3.3,2.3c-2,1.5-4.5,3.3-6.4,4.9c-2.4,1.9-4,3-6.7,4.6
						l6.7-10c2.2-2.8-3.6-3.6-5.8-0.6c-2.1,2.6-3.4,5-5,7.4c-3.9,5.7-7,11.8-10.2,18.1c-1.2,2.4-2.4,4.9-3.5,7.4
						c-0.5,1.2-2.1,4,0.1,4.3c4.5,0.6,5.3-1.6,6.3-4.2c1.7-4.3,2.2-5.1,3.3-7.7c1.1-2.6,1.8-4,3-6.2c0,0,0.4-0.6,0.4-0.6
						c0.2,0.4,1.6,5.1,1.8,5.6c0.9,2.5,2.6,8.3,3.5,11c0.7,2.2,0.9,2.8,3.8,2.8c1.5,0,2.1-0.6,3.1-2.4c1-1.8,5.2-9.7,5.2-9.7
						c1.3-0.2,3.1-0.5,4.3-0.7c0.2,0,0.7-0.1,1.3-0.3c0.4-0.1,0.8-0.1,1.1-0.2c0,0,0,0,0.1,0c1.2-0.2,2.6-0.5,4.2-0.8
						c-0.3,1.4-1.2,4.6-1.4,5.4c0,0-1.9,7.6,0.6,7.9c1.6,0.2,2.4,0,2.4,0c2.9-0.3,3-4.3,3-4.3l1.6-10.3c1.2-0.2,2.3-0.5,3.4-0.7
						l-3.5,11.7c-0.5,1.7-0.9,3.8,2.1,3.8c2.4,0.1,2.6-1.4,2.6-1.4c0.1-0.2,2-6.4,2.4-8.6c0.3-1.4,1.4-5.1,1.9-6.5
						c1.3-0.2,2.2-0.4,2.7-0.5c0.5-0.1,1.6-0.3,2.9-0.5c0,1.4,0,3.3,0,3.5c0.3,4.1,0,8.4,0.8,12.5c0.1,0.7,0.4,1.5,1.2,1.5
						c1,0,1.3-0.1,2.4-0.2c3-0.3,2.5-3.3,2.3-5.3c-0.2-2.2-0.4-4-0.7-6.1c-0.2-1.8-0.4-4.1-0.4-6.8v-0.1c5-0.8,10.4-1.8,11.2-1.9
						C120.9,18.4,122,18.5,121.7,15.7L121.7,15.7z M82.7,21.2C82.7,21.2,82.6,21.2,82.7,21.2c-3.5,0.8-6.8,1.5-8.7,2
						C75.9,20.1,84,8.9,85.2,7.6C84.5,11,83.4,17.5,82.7,21.2L82.7,21.2z M102.9,16.8v0.2c-1.7,0.3-3.3,0.6-4.5,0.9
						c1.6-4.1,3.3-9.2,4.3-11.8C102.5,7.9,102.9,14.9,102.9,16.8z M53.8,4.4c0.5-1,1.7-2.9,0.2-3.6c-0.9-0.4-2-0.7-2.9-0.2
						c-0.7,0.4-1.3,1.2-1.7,1.9l-5.6,8.8c-0.9,1.3-1.8,2.8-3.7,3c-1.2,0.1-2.1-0.4-2.1-1.5c0-1.1,0.7-2.6,1.2-3.6
						c1.5-2.8,1.7-3.7,3.1-6.5c1.4-2.6-3.1-3.3-4.2-1.3c-0.8,1.4-2.3,3.9-2.7,4.8c-0.6,1.6-5.4,9.1-3.3,12c2.6,3.4,9.6-1.9,6,4.2
						c-2.9,4.9-4.7,7.7-7.2,12.2c-0.6,1-1.2,1.9-1.4,3.1c-0.3,1.6,2,1.6,2.9,1.5c1.7-0.1,2.5-0.9,3.2-2.5c0.4-0.8,0.9-1.8,1.2-2.6
						c3.3-7.2,6.8-13.5,11.2-20.5C50.3,10.4,52.1,7.6,53.8,4.4L53.8,4.4z"/>
				</g>
			</g>
		</g>
	</g>
</g>
</svg>
