<svg xmlns="http://www.w3.org/2000/svg" width="91px" height="19px" viewBox="0 0 151 32" fill="#200b4f"><path d="M22.9 11.9L11.5 24.3c4.7 0 7.8 0 9.5-.1-.5 2.3-.9 4.3-1.3 7.1-2.3-.2-5.8-.2-9.4-.2-4 0-7.5 0-10.2.2l.1-4.4 11.4-12.3c-5 0-6.8 0-8.9.1.4-2.2.8-4.6 1.1-7.1 3.6.1 5.1.1 9.8.1 4.4 0 6.8-.1 9.5-.2l-.2 4.4zM140.4 6.7c-7.5 0-13.2 6.7-13.2 14.7 0 6 3.4 10.6 10.2 10.6 7.5 0 13.2-6.7 13.2-14.7 0-6-3.4-10.6-10.2-10.6zM138 25.6c-1.6 0-2.6-1.5-2.6-4.4 0-4.4 1.8-7.9 4-7.9 1.6 0 2.5 1.4 2.5 4.4 0 4.4-1.7 7.9-3.9 7.9zM120 22.5c-.3 2.3-.1 3.1 1.4 3.1 1.2 0 2.8-.7 3.9-1.2l-.9 5.7c-1.4.8-4.1 1.9-7.1 1.9-5.2 0-6.2-2.8-5.4-8.7l1.3-9.5h-2.6l.7-6.1 2.8-.1 1.1-4.5 7.9-3-1 7.4h5.4c-.2.8-.8 5-1 6.3h-5.3l-1.2 8.7zM108.4 12.3c-.5-4.6-5-6.6-11.3-5.8-3.3.4-6.2 1.4-8.4 2.7l1.6 4.9c1.7-.9 3.9-1.8 6.1-2 3.4-.4 4.7.7 4.9 2.4.1.7 0 1.3 0 1.8l-.1.3c-2.1-.4-4.3-.5-6.9-.2-3.3.4-5.9 1.7-7.6 3.8-1.2 1.6-1.9 4.2-1.4 6.5.8 3.7 3.5 5.3 7.5 4.8 2.8-.3 5.1-1.7 6.7-4-.1.8-.1 1.4-.2 1.9-.1.8-.3 1.4-.4 1.8h7.8v-2.3c.2-2.9.7-7.2 1.5-12.9.3-1.2.3-2.5.2-3.7zm-7.7 8.8c-.5 2.7-2.4 5.5-5.3 5.9-2 .2-3.6-.9-3.8-2.4-.1-1 .2-1.9.7-2.6.7-1 2.1-1.7 3.7-1.9 1.7-.2 3.5 0 4.7.3v.7zM84.4 14.7l-2.8 16.2h-7.8l2.1-14.4c.2-1.4.2-2.5-.9-2.5-2 0-4.5 3.8-5.1 7l-.9 5.1c-.2 1.8-.5 3.7-.5 4.9h-8.6c.5-2.1.9-5.3 1.3-8.1l.8-5.6c.3-2.1.3-3.2-.8-3.2-2 0-4.5 3.8-5.1 7l-.7 4.9c-.2 1.8-.5 3.7-.6 4.9h-8.5c.5-2.1.9-5.3 1.3-8.1l1.1-7.2c.4-2.7.5-5.6.4-7.8 3.2-.1 5.5-.3 8.1-.8.2.8.3 4.4-.3 7.5 2.5-4.8 6.2-7.8 9.5-7.8 4.5 0 4.8 3.6 4.3 7.4 2.5-4.6 6-7.4 9.3-7.4 4.6.2 4.9 3.9 4.4 8zM35.9 7c-7.4 0-13 6.6-13 14.5C22.9 27.4 26.3 32 33 32c7.5 0 13-6.6 13-14.6C46 11.5 42.7 7 35.9 7zm-2.2 18.6c-1.6 0-2.6-1.5-2.6-4.4 0-4.4 1.8-7.9 4-7.9 1.6 0 2.5 1.4 2.5 4.4 0 4.4-1.7 7.9-3.9 7.9z"></path></svg>