<svg xmlns="http://www.w3.org/2000/svg" width="79px" height="36px" viewBox="0 0 329 108" fill="#200b4f"><path d="M47.157 107.529a3.845 3.845 0 01-1.704-.425L1.756 82.461A3.447 3.447 0 010 79.48V3.741A3.396 3.396 0 013.406.336h87.448a3.396 3.396 0 013.406 3.406V79.48a3.447 3.447 0 01-1.756 2.98l-43.698 24.644c-.532.319-1.064.425-1.65.425zM6.866 77.511l40.29 22.673 40.291-22.673V7.2H6.866v70.31z"></path><path d="M47.157 73.253a3.84 3.84 0 01-1.704-.426l-13.838-7.824a3.446 3.446 0 01-1.756-2.98V47.651h6.865V60l10.433 5.855 12.188-6.866 3.353 5.96-13.838 7.825c-.586.319-1.118.479-1.703.479z"></path><path d="M47.157 90.391a3.84 3.84 0 01-1.703-.425L16.658 73.732a3.447 3.447 0 01-1.756-2.98v-37.15a3.396 3.396 0 013.406-3.407h42.26v6.866H21.715v31.721L47.05 83.046l25.335-14.264v-14.85h6.972v16.82a3.447 3.447 0 01-1.756 2.98L48.807 89.966c-.533.319-1.065.425-1.65.425z"></path><path d="M79.357 40.84h-6.866V22.105H27.038v-6.866h48.86a3.396 3.396 0 013.406 3.406V40.84h.053zm47.468 7.096c0-14.66 10.897-25.948 25.87-25.948 9.015 0 17.011 4.469 21.322 11.524l-9.799 5.723c-2.195-3.842-6.506-6.115-11.523-6.115-8.78 0-14.503 5.88-14.503 14.816 0 8.937 5.723 14.816 14.503 14.816 5.017 0 9.407-2.273 11.523-6.114l9.799 5.723c-4.233 7.055-12.229 11.523-21.322 11.523-14.973-.078-25.87-11.288-25.87-25.948zm145.183 14.738v11.053h-33.63v-51.74h33.63v11.054h-21.793V41.9h19.206v11.21h-19.206v9.485h21.793v.079zm-56.05-7.84c5.722-2.9 9.563-8.701 9.563-15.051 0-9.878-7.917-17.795-17.716-17.795h-20.696v51.817h11.837v-17.01h5.645l9.72 17.01h12.7l-11.053-18.97zm-8.232-8.388h-8.858V33.12h8.858c3.214 0 5.88 2.9 5.88 6.663 0 3.763-2.666 6.663-5.88 6.663zm96.188-24.458h-19.049v51.66h19.049c14.189 0 25.086-11.21 25.086-25.869 0-14.581-10.818-25.791-25.086-25.791zm0 40.686h-7.212V33.12h7.212c8.075 0 13.719 5.879 13.719 14.737 0 8.859-5.566 14.817-13.719 14.817z"></path></svg>