<svg xmlns="http://www.w3.org/2000/svg" width="97px" height="15px" viewBox="0 0 179 29" fill="#200b4f"><path d="M178.8 0h-6.5v11.1l-2.6 3.2-2.6-3.2V0h-6.5v13.5l5.9 7.1v7.7h6.5v-7.7l5.9-7.1V0M86.3.2h6.5v28.2h-6.5V.2M148.3 28.1h-6.5V3.3L145 0h12.1v6.5h-8.9v21.6M127.3 21.8v-4.3h7.1V11h-7.1V6.5h10.1V0H124l-3.2 3.3V25l3.3 3.3H137.5v-6.5h-10.2M109.3 17.9l-2.6 3.2-2.6-3.2V.2h-6.5v20.1l6.6 8h5.1l6.6-8V.2h-6.5v17.7M13.4 21.8H6.5V6.5h6.8v15.3zM10.9.1H0v28.2h16.6l3.2-3.3V3.4L16.5.1h-5.6M33.1 6.5h7.6V0H27.3l-3.2 3.3V25l3.3 3.3H40.8v-6.5H30.7v-4.3h7.1V11h-7.1V6.5h2.4M50.9.1h-6.5v25l3.3 3.3h12.1v-6.5h-8.9V.1M75.3.2V11h-5.8V.1H63v28.2h6.5V17.5h5.8v10.8h6.5V.2h-6.5"></path></svg>